<svg xmlns="http://www.w3.org/2000/svg" width="197" height="38" viewBox="0 0 197 38">
    <g data-name="그룹 32623">
        <g data-name="그룹 32499">
            <path data-name="패스 1" d="m55.4 65.648-.689-.393v-6.923l3.482-1.992-2.793-1.6-3.457 1.979v10.147l3.457 1.967 8.9-5.078-2.7-1.648z" transform="translate(-40.853 -39.592)" style="fill:#fff"/>
            <path data-name="패스 2" d="m37.909 21.877-14.542 8.3V46.8l2.768 1.574V31.787l11.774-6.726 5.3 3.037.6-2.852z" transform="translate(-23.367 -19.477)" style="fill:#fff"/>
            <path data-name="패스 3" d="M58.417 41.867v13.39l-11.774 6.725-6.238-3.566v-13.34l6.238-3.566 6.237 3.553 2.768-1.574v-.024l-9.006-5.139-9.006 5.139v16.562l9.006 5.14 14.542-8.3v-16.6z" transform="translate(-32.1 -29.545)" style="fill:#fff"/>
        </g>
        <text data-name="FIRMA NFT" transform="translate(97.935 27.4)" style="font-weight:700;font-size:23px;font-family:ChakraPetch-Bold,Chakra Petch;letter-spacing:.01em;fill:#fff"><tspan x="-59.604" y="0">FIRMA NFT</tspan></text>
        <text transform="translate(176 20)" style="fill:#316ff5;font-size:13.5px;font-family:SF Pro;font-style:italic;letter-spacing:-.05em;font-weight:700"><tspan x="-14.313" y="0">Beta</tspan></text>
    </g>
</svg>
